# xmcd
#
# Track frame offsets: 
#        150
#        13208
#        28735
#        41826
#        55679
#        67521
#        80301
#        95155
#        109938
#        124707
#        137635
#        149541
#        162021
#        174300
#
# Disc length: 2468 seconds
#
# Revision: 2
# Processed by: cddbd v1.5.2PL0 Copyright (c) Steve Scherf et al.
# Submitted via: ExactAudioCopy v0.99pb5
#
DISCID=b809a20e
DTITLE=Django Reinhardt - Django
DYEAR=1900
DGENRE=Jazz
TTITLE0=Charleston
TTITLE1=Chicago
TTITLE2=You're Driving me Crazy
TTITLE3=In a Sentimental Mood
TTITLE4=I've Found a New Baby
TTITLE5=Alabamy Bound
TTITLE6=Lady be Good
TTITLE7=Minor Swing
TTITLE8=Viper's Dream
TTITLE9=Swingin' With Django
TTITLE10=Paramount Stomp
TTITLE11=Bouncin' Around
TTITLE12=Saint Louis Blues
TTITLE13=Swing Guitars
EXTD=
EXTT0=
EXTT1=
EXTT2=
EXTT3=
EXTT4=
EXTT5=
EXTT6=
EXTT7=
EXTT8=
EXTT9=
EXTT10=
EXTT11=
EXTT12=
EXTT13=
PLAYORDER=
